<svg width="1314" height="915" viewBox="0 0 1314 915" fill="none" xmlns="http://www.w3.org/2000/svg">
<g filter="url(#filter0_f_267_50)">
<path d="M742.763 235.3C738.505 231.08 738.505 224.215 742.763 219.995C747.02 215.775 753.946 215.775 758.203 219.995C762.461 224.215 762.461 231.08 758.203 235.3C753.946 239.52 747.02 239.52 742.763 235.3ZM217.678 68.7549C213.421 72.975 213.421 79.8396 217.678 84.0597C221.936 88.2798 228.861 88.2798 233.119 84.0597C237.376 79.8396 237.376 72.975 233.119 68.7549C228.861 64.5348 221.936 64.5348 217.678 68.7549ZM778.41 218.259C780.226 218.259 782.043 217.809 783.746 216.853C791.239 212.689 799.243 208.919 807.587 205.656C813.207 203.461 815.932 197.215 813.774 191.645C811.561 186.074 805.203 183.373 799.64 185.512C790.387 189.113 781.418 193.277 773.074 197.947C767.851 200.873 765.978 207.456 768.93 212.632C770.917 216.177 774.663 218.146 778.466 218.146L778.41 218.259ZM1279.26 154.62C1259.33 197.441 1243.78 227.712 1232.42 249.882C1205.06 303.279 1198.53 315.996 1196.66 369.395C1195.3 407.487 1172.42 446.538 1133.82 476.528C1097.49 504.83 1052.53 520.586 1007.52 522.049C1057.59 554.066 1132.69 611.797 1121.22 664.631C1118.44 677.516 1121.73 687.419 1125.31 697.941C1130.53 713.415 1137.06 732.659 1112.14 752.522C1096.7 764.788 1097.44 768.277 1099.19 776.661C1101.41 787.183 1104.47 801.644 1088.69 826.683C1080.18 840.188 1070.47 846.321 1063.43 850.766C1054.97 856.112 1054.63 856.337 1060.37 870.292C1067.06 886.609 1095.45 904.502 1122.92 921.833C1160.27 945.408 1198.88 969.828 1204.49 1001.39C1206.94 1014.9 1203.08 1028.29 1193.14 1041.29C1184.63 1052.37 1174.41 1058 1162.77 1058C1133.14 1058 1104.02 1020.24 1073.2 980.238C1049.47 949.404 1017.05 907.259 1001.56 915.474C995.086 918.963 995.2 921.551 995.597 929.26C996.051 938.825 996.846 954.917 973.743 963.077C953.931 970.055 945.247 963.471 938.776 956.719C938.038 955.931 937.073 954.918 936.619 954.693C936.619 954.75 934.575 954.525 928.728 957.225C923.619 959.589 920.951 963.753 917.829 968.592C912.55 976.807 904.489 989.186 883.372 985.134C857.545 980.126 857.09 960.995 856.863 949.572C856.636 939.894 856.239 933.648 850.449 928.134C841.309 919.356 836.825 920.087 830.58 921.213C816.73 923.576 806.569 920.706 798.565 899.269C795.5 891.166 791.469 875.074 785.906 852.791C770.636 791.909 743.957 686.073 709.045 636.954C707.967 732.777 689.234 774.585 675.44 792.134C670.899 797.873 664.257 801.193 657.048 801.193C649.896 801.193 643.141 797.929 638.657 792.19C624.919 774.578 606.13 732.771 605.051 637.01C570.141 686.132 543.517 791.974 528.19 852.79C522.57 875.072 518.54 891.165 515.531 899.268C507.471 920.762 497.31 923.575 483.516 921.211C477.272 920.142 472.787 919.354 463.648 928.132C457.858 933.703 457.46 939.892 457.233 949.571C456.949 960.993 456.552 980.068 430.724 985.132C409.551 989.24 401.547 976.805 396.267 968.59C393.145 963.751 390.477 959.644 385.368 957.224C379.408 954.467 377.364 954.748 377.307 954.748C377.08 954.917 376.059 955.986 375.321 956.718C368.793 963.47 360.22 970.053 340.354 963.076C317.251 954.917 318.044 938.881 318.499 929.259C318.896 921.55 319.01 918.905 312.539 915.473C297.155 907.371 264.628 949.403 240.9 980.237C210.076 1020.24 180.956 1058 151.324 1058C139.687 1058 129.469 1052.37 120.955 1041.29C111.021 1028.34 107.161 1014.95 109.602 1001.39C115.278 969.827 153.879 945.407 191.174 921.831C218.648 904.501 247.032 886.552 253.73 870.29C259.463 856.336 259.123 856.111 250.664 850.765C243.569 846.264 233.919 840.187 225.404 826.682C209.623 801.643 212.631 787.182 214.902 776.659C216.661 768.276 217.4 764.787 201.959 752.52C177.04 732.658 183.568 713.415 188.79 697.94C192.309 687.474 195.658 677.571 192.877 664.63C181.41 611.794 256.511 554.007 306.578 522.048C261.506 520.529 216.605 504.774 180.218 476.527C141.618 446.48 118.74 407.43 117.379 369.393C115.505 315.996 109.034 303.336 81.617 249.937C70.2639 227.823 54.7095 197.439 34.7847 154.675C-0.807026 78.1512 -2.28348 15.4684 30.8111 -17.4445C56.5255 -42.9894 113.405 -61.5583 238.633 -4.61552C407.059 71.8523 558.671 301.711 608.342 382.952C609.307 376.369 610.328 371.868 611.35 368.773C609.874 364.215 608.852 359.489 608.852 354.425C608.852 346.772 610.839 339.683 614.075 333.267C611.691 317.569 595.683 240.595 506.39 205.821C500.77 203.626 498.045 197.38 500.203 191.81C502.416 186.239 508.774 183.539 514.337 185.677C596.023 217.524 623.271 281.163 632.07 313.798C639.336 309.409 647.793 306.708 656.932 306.708C666.072 306.708 674.586 309.409 681.852 313.798C686.62 296.468 696.611 270.303 717.274 244.644C721.02 239.974 727.945 239.243 732.601 242.956C737.312 246.67 738.05 253.478 734.304 258.149C708.476 290.11 701.436 323.532 699.847 333.266C703.082 339.68 705.069 346.77 705.069 354.423C705.069 359.431 704.047 364.214 702.571 368.771C703.593 371.866 704.615 376.367 705.58 382.951C755.25 301.701 906.921 71.8994 1075.29 -4.55976C1200.46 -61.3899 1257.39 -42.8787 1283.17 -17.3887C1316.26 15.5285 1314.84 78.266 1279.2 154.731L1279.26 154.62ZM640.181 518.392C647.334 529.702 666.577 529.702 673.787 518.392C682.812 504.269 687.354 483.618 687.354 457.06C687.354 425.157 686.218 405.237 684.913 392.972C677.022 398.599 667.429 401.975 656.984 401.975C646.538 401.975 636.945 398.599 629.055 392.916C627.749 405.182 626.614 425.045 626.614 457.004C626.614 483.563 631.155 504.156 640.238 518.336L640.181 518.392ZM630.645 354.31C630.645 357.742 631.383 361.006 632.575 364.044C632.745 364.382 632.859 364.72 633.029 365.001C637.173 374.06 646.312 380.362 656.984 380.362C667.655 380.362 676.795 374.004 680.938 364.945C681.052 364.607 681.222 364.326 681.335 363.988C682.584 360.95 683.265 357.686 683.265 354.254C683.265 339.849 671.458 328.146 656.926 328.146C642.394 328.146 630.587 339.849 630.587 354.254L630.645 354.31ZM193.61 459.475C238.057 494.022 296.639 508.09 350.279 496.949C461.369 473.992 557.026 491.885 608.731 543.483C609.696 532.173 610.774 520.413 612.137 508.091C607.482 493.631 604.871 476.75 604.871 457.056C604.871 442.764 605.098 430.779 605.495 420.482C592.439 397.862 418.105 100.543 229.596 14.9655C140.814 -25.3786 75.702 -31.4559 46.3038 -2.19599C20.0212 23.9122 23.0293 77.8168 54.5915 145.623C74.3463 188.049 89.1617 216.97 101.082 240.153C128.783 294.17 137.129 310.487 139.172 368.669C140.251 399.898 160.63 433.882 193.667 459.597L193.61 459.475ZM605.214 604.197C605.498 594.744 605.895 584.898 606.519 574.544C565.705 516.362 470.395 494.587 356.177 517.882C311.729 541.683 203.475 611.399 214.093 660.071C218.123 678.752 213.298 693.213 209.382 704.804C204.329 719.658 202.456 725.286 215.512 735.638C239.467 754.713 239.07 766.979 236.119 781.045C234.359 789.542 232.656 797.531 243.782 815.2C249.686 824.541 256.1 828.592 262.287 832.53C275.968 841.195 285.505 850.086 273.811 878.445C264.501 901.064 234.529 920.026 202.797 940.057C171.008 960.144 134.905 982.934 130.932 1005.16C129.626 1012.59 131.954 1020.07 138.141 1028.12C143.818 1035.49 148.302 1036.33 151.197 1036.33C170.1 1036.33 199.675 997.9 223.461 967.009C258.201 921.883 291.068 879.289 322.856 896.394C341.361 906.297 340.625 921.321 340.17 930.268C339.772 938.596 339.716 939.89 347.549 942.647C355.78 945.573 356.632 944.672 359.47 941.747C366.055 934.938 374.74 928.411 394.495 937.639C405.281 942.647 410.617 950.918 414.477 956.882C419.188 964.197 419.813 965.153 426.397 963.859C435.026 962.171 435.082 960.708 435.309 949.062C435.537 938.708 435.82 924.585 448.309 912.601C465.396 896.171 478.906 898.478 487.023 899.884C488.329 900.109 489.975 900.334 490.77 900.391C490.656 900.222 492.359 898.421 494.914 891.726C497.525 884.748 501.669 868.318 506.891 847.556C526.021 771.369 557.81 645.561 605.153 604.306L605.214 604.197ZM683.04 539.714C675.774 545.509 666.748 548.998 656.984 548.998C647.22 548.998 638.138 545.509 630.872 539.657C616.396 707.167 643.019 762.423 655.791 778.744H658.175C670.948 762.37 697.687 707 683.04 539.714ZM957.782 517.826C843.569 494.587 748.26 516.25 707.439 574.488C708.007 584.841 708.461 594.687 708.745 604.141C756.144 645.385 787.819 771.204 807.006 847.39C812.228 868.153 816.372 884.638 818.983 891.616C821.765 899.1 823.581 900.45 823.638 900.506C823.581 900.338 825.511 900 826.874 899.775C834.991 898.368 848.502 896.061 865.588 912.491C878.077 924.476 878.418 938.656 878.645 948.952C878.928 960.6 878.928 962.063 887.557 963.75C894.198 965.1 894.766 964.088 899.421 956.773C903.338 950.752 908.617 942.537 919.459 937.53C939.214 928.302 947.898 934.829 954.484 941.637C957.322 944.563 958.231 945.52 966.405 942.594C974.238 939.837 974.182 938.542 973.784 930.215C973.33 921.268 972.592 906.3 991.098 896.341C1022.89 879.236 1055.7 921.83 1090.49 966.956C1114.28 997.847 1143.91 1036.28 1162.76 1036.28C1165.65 1036.28 1170.14 1035.43 1175.76 1028.06C1181.94 1020.02 1184.33 1012.48 1182.97 1005.05C1178.99 982.823 1142.95 960.035 1111.1 939.948C1079.37 919.917 1049.45 901.011 1040.09 878.335C1028.39 849.92 1037.93 841.087 1051.61 832.421C1057.8 828.482 1064.21 824.431 1070.12 815.091C1081.24 797.422 1079.54 789.433 1077.78 780.936C1074.83 766.869 1074.43 754.603 1098.39 735.529C1111.44 725.119 1109.57 719.548 1104.52 704.695C1100.6 693.103 1095.72 678.699 1099.8 659.961C1110.42 611.29 1002.11 541.517 957.72 517.773L957.782 517.826ZM1267.78 -2.24929C1238.32 -31.5078 1173.21 -25.3757 1084.43 14.9123C895.905 100.551 721.579 397.871 708.529 420.428C708.927 430.725 709.154 442.711 709.154 457.003C709.154 476.753 706.542 493.634 701.888 508.094C703.25 520.417 704.328 532.177 705.294 543.486C757.007 491.889 852.662 473.996 963.745 496.952C1017.39 508.037 1075.97 494.026 1120.36 459.478C1153.39 433.763 1173.77 399.778 1174.91 368.549C1176.95 310.368 1185.3 294.05 1213 240.033C1224.86 216.851 1239.68 187.929 1259.43 145.504C1290.99 77.7016 1294.06 23.8531 1267.72 -2.31555L1267.78 -2.24929ZM196.218 48.4474C178.337 40.8513 161.251 34.493 145.243 29.6539C139.453 27.9658 133.379 31.1731 131.619 36.8561C129.859 42.5391 133.095 48.6161 138.885 50.3604C154.099 54.9181 170.447 60.9949 187.591 68.2536C189.01 68.8726 190.429 69.1539 191.905 69.1539C196.105 69.1539 200.136 66.6782 201.896 62.627C204.28 57.1128 201.724 50.8108 196.218 48.4474ZM420.505 258.264C422.662 260.796 425.727 262.146 428.85 262.146C431.347 262.146 433.845 261.302 435.832 259.614C440.43 255.788 441.054 248.98 437.194 244.365C377.25 173.636 318.44 119.507 262.52 83.4382C257.411 80.1747 250.712 81.6376 247.419 86.5892C244.127 91.597 245.546 98.2928 250.598 101.557C304.753 136.443 361.929 189.221 420.505 258.264Z" fill="#CEDEFF"/>
</g>
<defs>
<filter id="filter0_f_267_50" x="0" y="-49" width="1314" height="1114" filterUnits="userSpaceOnUse" color-interpolation-filters="sRGB">
<feFlood flood-opacity="0" result="BackgroundImageFix"/>
<feBlend mode="normal" in="SourceGraphic" in2="BackgroundImageFix" result="shape"/>
<feGaussianBlur stdDeviation="3.5" result="effect1_foregroundBlur_267_50"/>
</filter>
</defs>
</svg>
