<svg width="102" height="99" viewBox="0 0 102 99" fill="none" xmlns="http://www.w3.org/2000/svg">
<path d="M4.1438 66.3981C4.1438 66.3981 -0.27435 64.2099 1.36457 61.4923C3.00349 58.7746 5.87257 57.8416 10.9908 60.2185C16.1097 62.5966 38.0067 79.403 45.7201 88.9452C53.434 98.4873 67.6164 101.045 58.7685 90.8504C50.2332 81.0162 42.8683 79.7604 36.183 76.7623C29.497 73.7643 6.42444 25.1921 9.56368 9.68206C12.7036 -5.82802 24.2094 1.69921 29.988 14.6482C35.7672 27.5979 48.6231 33.1904 50.3538 37.9846C54.3767 49.131 47.7568 61.294 40.7147 68.7237C34.5986 75.176 35.402 61.9787 37.9316 54.2262C40.4619 46.4744 45.1599 37.0406 49.0685 27.0672C55.9983 9.38559 68.8414 1.64595 74.8452 7.30132C84.6724 16.558 82.1492 30.8719 86.6135 35.3401C91.0779 39.8077 97.7619 48.0947 87.3836 54.2788C74.5424 61.9312 45.6777 74.1307 56.2678 64.8227C66.8586 55.5148 94.7292 55.389 99.2725 61.5365C103.815 67.6841 97.9929 74.7082 97.726 80.1781C97.4597 85.6481 100.551 89.2006 94.1831 92.377C87.8142 95.5535 74.6701 89.4329 67.1723 85.1661C62.3743 82.4363 56.5027 80.2667 49.1282 79.6295C41.7537 78.9923 31.9612 77.4092 26.8269 75.3763C22.8753 73.8118 11.6678 72.049 10.2259 73.9472C7.44348 77.61 10.0604 80.8596 12.8858 80.4008" stroke="#20516F" stroke-width="1.28342" stroke-miterlimit="10"/>
</svg>
