<svg width="201" height="186" viewBox="0 0 201 186" fill="none" xmlns="http://www.w3.org/2000/svg">
<path d="M96.9858 39.0194C92.9628 38.7764 90.0838 32.3124 96.9698 31.4234C103.857 30.5354 104.965 44.5444 105.406 54.2774C105.847 64.0104 114.076 90.3454 115.662 102.099C117.247 113.854 126.996 147.236 135.003 154.857C143.011 162.478 138.082 144.382 133.482 134.714C128.883 125.048 110.577 108.77 107.165 99.2254C103.751 89.6804 118.739 93.1165 115.401 123.99C112.197 153.624 118.381 167.703 110.68 179.738C102.979 191.774 67.8428 178.279 60.4388 166.333C49.4998 148.682 74.7228 119.405 88.7228 114.905C98.9148 111.629 99.2478 119.084 86.2528 124.938C73.2588 130.793 61.1228 134.847 49.0658 131.606C37.0098 128.364 30.0898 114.06 18.3608 107.655C6.63083 101.249 -6.84817 84.6704 6.62283 78.0664C20.0948 71.4614 48.4888 75.1885 65.6338 83.3525C75.0868 87.8535 103.654 110.909 110.596 111.71C118.396 112.61 128.484 119.365 133.915 122.77C144.951 129.688 168.592 154.725 182.308 145.748C196.024 136.77 197.098 125.35 199.577 113.954C202.055 102.558 187.856 91.9594 177.817 88.5264C167.778 85.0934 136.359 87.4494 130.362 95.2254C124.363 102.999 137.114 99.5185 150.067 94.0595C163.021 88.5995 178.711 68.2334 177.917 56.5604C177.122 44.8864 169.859 30.3494 170.442 20.8164C171.026 11.2824 167.35 -4.02356 154.274 2.62244C141.198 9.26744 126.602 36.6894 123.355 54.2824C119.505 75.1314 121.544 108.508 117.272 111.444C113.001 114.381 101.548 99.4484 93.4428 85.0214C85.3378 70.5964 77.0688 57.7525 71.4908 57.5765C65.9138 57.4015 65.4078 64.8384 71.0348 64.8384" stroke="black" stroke-width="2" stroke-miterlimit="10"/>
</svg>
