<svg width="102" height="122" viewBox="0 0 102 122" fill="none" xmlns="http://www.w3.org/2000/svg">
<path d="M100.675 69.9112C100.675 69.9112 101.73 68.2194 100.037 66.6572C98.345 65.0951 93.2825 66.4034 87.9213 73.1309C82.5608 79.8585 75.8538 88.5304 74.982 88.7512C74.1114 88.9719 90.074 22.9651 79.7059 12.0507C69.3371 1.13744 56.7719 12.8882 54.6186 23.797C52.4659 34.7065 47.3803 42.1268 40.3896 44.6955C33.3996 47.2654 37.8715 54.8703 47.7894 60.1261C57.7092 65.3813 68.0275 79.1532 66.8663 83.9986C65.7045 88.8447 58.9658 74.3975 61.5756 55.4702C64.186 36.5436 72.4271 5.3013 60.6077 1.47607C48.7897 -2.34854 45.0673 18.0199 40.0541 21.5913C35.0415 25.1627 20.5675 35.3376 26.9826 43.7008C33.3971 52.0647 55.8028 80.1285 56.3915 73.8855C56.9864 67.5758 25.0413 52.2412 14.6818 51.3569C4.32365 50.4714 1.5729 60.1829 1.09646 67.8471C0.619397 75.5119 1.22617 93.2231 19.4506 95.9283C37.6744 98.6342 59.4759 95.4344 60.4431 91.0723C61.4097 86.7101 36.0231 60.4355 22.525 63.3932C16.9443 64.6161 12.8141 70.8541 9.67673 77.8342C5.22664 87.7341 4.2669 99.4891 16.8558 103.671C38.3217 110.801 64.2995 97.4013 72.8249 92.6668C81.3503 87.9324 71.7292 100.676 63.4134 109.772C56.9821 116.807 54.6298 123.749 52.2613 119.679C49.8941 115.608 54.409 109.999 60.3446 104.944C68.6174 97.8983 79.2288 90.2977 80.0919 86.629C81.5754 80.3299 77.4739 82.5992 81.568 71.6736C84.4977 63.856 89.5552 55.2033 94.728 54.2648C95.9603 54.0416 99.5885 54.185 97.5031 57.7396" stroke="#20516F" stroke-width="1.24722" stroke-miterlimit="10"/>
</svg>
