<svg width="201" height="186" viewBox="0 0 201 186" fill="none" xmlns="http://www.w3.org/2000/svg">
<path d="M103.876 39.0194C107.899 38.7764 110.778 32.3124 103.892 31.4234C97.0053 30.5354 95.8973 44.5444 95.4563 54.2774C95.0153 64.0104 86.7863 90.3454 85.2003 102.099C83.6153 113.854 73.8664 147.236 65.8594 154.857C57.8514 162.478 62.7804 144.382 67.3804 134.714C71.9794 125.048 90.2854 108.77 93.6974 99.2254C97.1114 89.6804 82.1233 93.1165 85.4613 123.99C88.6653 153.624 82.4814 167.703 90.1824 179.738C97.8834 191.774 133.019 178.279 140.423 166.333C151.362 148.682 126.139 119.405 112.139 114.905C101.947 111.629 101.614 119.084 114.609 124.938C127.603 130.793 139.739 134.847 151.796 131.606C163.852 128.364 170.772 114.06 182.501 107.655C194.231 101.249 207.71 84.6704 194.239 78.0664C180.767 71.4614 152.373 75.1885 135.228 83.3525C125.775 87.8535 97.2084 110.909 90.2664 111.71C82.4664 112.61 72.3783 119.365 66.9473 122.77C55.9113 129.688 32.2704 154.725 18.5544 145.748C4.83835 136.77 3.76435 125.35 1.28535 113.954C-1.19265 102.558 13.0064 91.9594 23.0454 88.5264C33.0844 85.0934 64.5034 87.4494 70.5004 95.2254C76.4994 102.999 63.7483 99.5185 50.7953 94.0595C37.8413 88.5995 22.1514 68.2334 22.9454 56.5604C23.7404 44.8864 31.0034 30.3494 30.4204 20.8164C29.8364 11.2824 33.5123 -4.02356 46.5883 2.62244C59.6643 9.26744 74.2604 36.6894 77.5074 54.2824C81.3574 75.1314 79.3183 108.508 83.5903 111.444C87.8613 114.381 99.3144 99.4484 107.419 85.0214C115.524 70.5964 123.793 57.7525 129.371 57.5765C134.948 57.4015 135.454 64.8384 129.827 64.8384" stroke="black" stroke-width="2" stroke-miterlimit="10"/>
</svg>
