<svg width="34" height="33" viewBox="0 0 34 33" fill="none" xmlns="http://www.w3.org/2000/svg">
<path d="M17.5078 11.0003C20.411 11.1473 22.7197 13.5494 22.7197 16.4905L22.7129 16.7728C22.5659 19.6773 20.1652 21.9866 17.2256 21.9866L16.9424 21.9798C14.1332 21.8371 11.8805 19.5835 11.7383 16.7728L11.7314 16.4905C11.7314 13.4547 14.1913 10.9935 17.2256 10.9935L17.5078 11.0003ZM17.2256 12.3675C14.9509 12.3675 13.1055 14.2131 13.1055 16.4905C13.1056 18.7679 14.951 20.6126 17.2256 20.6126C19.5002 20.6126 21.3456 18.7679 21.3457 16.4905C21.3457 14.2131 19.5003 12.3675 17.2256 12.3675Z" fill="#737373"/>
<path d="M28.5806 16.4188C28.5612 16.2535 28.452 16.0824 27.9419 15.4627C26.9872 14.303 25.467 12.6562 23.5894 11.3045C21.7062 9.94889 19.5214 8.93243 17.2251 8.93243C14.929 8.93255 12.7449 9.94897 10.8618 11.3045C8.98416 12.6562 7.46397 14.303 6.50928 15.4627C5.92668 16.1704 5.86672 16.293 5.8667 16.4901C5.8667 16.6872 5.92659 16.8096 6.50928 17.5174L6.89307 17.9734C7.84932 19.084 9.21874 20.4928 10.8618 21.6756C12.7449 23.0311 14.929 24.0485 17.2251 24.0486C19.5214 24.0486 21.7062 23.0312 23.5894 21.6756C25.467 20.3239 26.9872 18.6771 27.9419 17.5174C28.5245 16.8096 28.5845 16.6872 28.5845 16.4901L28.5806 16.4188ZM29.9536 16.6346C29.9 17.3444 29.4556 17.84 29.0024 18.3904C28.0068 19.5999 26.4015 21.3443 24.3921 22.7908C22.388 24.2335 19.9229 25.4227 17.2251 25.4227C14.5274 25.4225 12.0631 24.2334 10.0591 22.7908C8.30091 21.5252 6.85193 20.0318 5.8501 18.868L5.44775 18.3904C4.96459 17.8035 4.4917 17.2784 4.4917 16.4901C4.49173 15.7017 4.96457 15.1766 5.44775 14.5897C6.4434 13.3802 8.04956 11.6358 10.0591 10.1893C12.0631 8.74669 14.5274 7.55755 17.2251 7.55743C19.9229 7.55743 22.388 8.74662 24.3921 10.1893C26.4015 11.6358 28.0068 13.3802 29.0024 14.5897C29.4857 15.1767 29.9585 15.7015 29.9585 16.4901L29.9536 16.6346Z" fill="#737373"/>
</svg>
