<svg width="34" height="33" viewBox="0 0 34 33" fill="none" xmlns="http://www.w3.org/2000/svg">
<path fill-rule="evenodd" clip-rule="evenodd" d="M22.6102 17.5873C22.682 17.2328 22.7197 16.866 22.7197 16.4903C22.7197 13.4545 20.2599 10.9935 17.2255 10.9935C16.85 10.9935 16.4833 11.0312 16.129 11.103L17.3966 12.3712C19.5351 12.4586 21.2542 14.1775 21.3419 16.3185L22.6102 17.5873ZM13.645 14.4494C13.3018 15.0511 13.1056 15.7477 13.1056 16.4903C13.1056 18.7678 14.9508 20.6129 17.2255 20.6129C17.9677 20.6129 18.6641 20.4165 19.2656 20.0728L20.2634 21.0711C19.3933 21.6498 18.3488 21.9871 17.2255 21.9871C14.1912 21.9871 11.7314 19.5261 11.7314 16.4903C11.7314 15.3665 12.0685 14.3215 12.647 13.4509L13.645 14.4494Z" fill="#737373"/>
<path fill-rule="evenodd" clip-rule="evenodd" d="M26.2791 21.258C27.415 20.2289 28.343 19.1925 29.0029 18.3909L29.0837 18.2931C29.5375 17.7443 29.959 17.2347 29.959 16.4901C29.959 15.7455 29.5375 15.2359 29.0837 14.6871L29.0029 14.5894C28.0073 13.3799 26.4014 11.6359 24.3919 10.1894C22.3877 8.74672 19.9234 7.5578 17.2256 7.5578C15.8707 7.5578 14.5747 7.85767 13.3664 8.33894L14.4365 9.40959C15.3378 9.10739 16.272 8.932 17.2256 8.932C19.5219 8.932 21.7058 9.94905 23.589 11.3047C25.4668 12.6564 26.9873 14.303 27.942 15.4627C28.5247 16.1706 28.5848 16.293 28.5848 16.4901C28.5848 16.6872 28.5247 16.8096 27.942 17.5175C27.2989 18.2986 26.3991 19.3007 25.3064 20.2848L26.2791 21.258ZM10.6539 11.4569C8.87201 12.7783 7.42841 14.3462 6.50926 15.4627C5.92657 16.1706 5.86639 16.293 5.86639 16.4901C5.86639 16.6872 5.92657 16.8096 6.50926 17.5175C7.46396 18.6772 8.98446 20.3238 10.8622 21.6755C12.7454 23.0312 14.9294 24.0482 17.2256 24.0482C18.8718 24.0482 20.4603 23.5255 21.9216 22.7301L22.9305 23.7394C21.2355 24.7198 19.2996 25.4224 17.2256 25.4224C14.5278 25.4224 12.0635 24.2335 10.0594 22.7908C8.04984 21.3443 6.44396 19.6003 5.4483 18.3909L5.36756 18.2931C4.9137 17.7443 4.49219 17.2347 4.49219 16.4901C4.49219 15.7455 4.91369 15.2359 5.36756 14.6871L5.4483 14.5894C6.37923 13.4585 7.84361 11.8604 9.67262 10.475L10.6539 11.4569Z" fill="#737373"/>
<path d="M7.61084 2.74823L29.5873 24.7354" stroke="#737373" stroke-width="1.3742"/>
</svg>
