<svg width="25" height="27" viewBox="0 0 25 27" fill="none" xmlns="http://www.w3.org/2000/svg">
<path d="M1.58789 14.9419C1.58789 12.3507 1.58789 11.055 2.39288 10.2501C3.19787 9.44507 4.49348 9.44507 7.08469 9.44507H18.0675C20.6587 9.44507 21.9543 9.44507 22.7593 10.2501C23.5643 11.055 23.5643 12.3507 23.5643 14.9419V17.6903C23.5643 21.5771 23.5643 23.5205 22.3568 24.728C21.1493 25.9355 19.2059 25.9355 15.3191 25.9355H9.83309C5.94627 25.9355 4.00285 25.9355 2.79537 24.728C1.58789 23.5205 1.58789 21.5771 1.58789 17.6903V14.9419Z" stroke="#737373" stroke-width="1.3742"/>
<path d="M18.0702 8.07089V6.694C18.0702 3.65968 15.6104 1.19989 12.5761 1.19989V1.19989C9.54182 1.19989 7.08203 3.65968 7.08203 6.69399V8.07089" stroke="#737373" stroke-width="1.3742" stroke-linecap="round"/>
<ellipse cx="12.5762" cy="17.6903" rx="2.74705" ry="2.7484" fill="#737373"/>
</svg>
